<?xml version="1.0" encoding="utf-8"?>
<!-- Uploaded to: SVG Repo, www.svgrepo.com, Generator: SVG Repo Mixer Tools -->
<svg fill="#000000" height="800px" width="800px" version="1.1" id="Layer_1" xmlns="http://www.w3.org/2000/svg" xmlns:xlink="http://www.w3.org/1999/xlink" 
	 viewBox="0 0 64 64" enable-background="new 0 0 64 64" xml:space="preserve">
<g id="Mail-sent">
	<path d="M63.9404068,39.7210922l-3.9560013-22.387701c-0.3691978-2.0928001-2.3700981-3.4952002-4.464901-3.125001
		l-31.7255974,5.605401c-1.9706993,0.3484993-3.3083,2.1479988-3.1501999,4.1022987
		c-0.0215759,0.1623001,3.9832001,22.7511997,3.9832001,22.7511997c0.1777992,1.0137024,0.7413006,1.8964996,1.5860004,2.4873009
		c0.6552982,0.4580994,1.4179993,0.6963005,2.2012234,0.6963005c0.2254753,0,0.452076-0.0195007,0.6776752-0.0595016
		l31.7236004-5.6054993c1.0137253-0.1786995,1.8964996-0.7411995,2.4873009-1.5858994
		C63.8926048,41.7571907,64.119133,40.7346916,63.9404068,39.7210922z M61.2677078,36.0848923l-10.667202-8.2056007
		c3.0028-3.2334003,6.1376991-6.7851009,7.7024994-8.5721016L61.2677078,36.0848923z M24.1426067,21.7825909l31.7245998-5.6055012
		c0.1093979-0.0184994,0.2168007-0.0282993,0.3232002-0.0282993c0.6133003,0,1.1739998,0.3108997,1.5154991,0.7998009
		c-0.9322014,1.0723991-9.3749008,10.7567997-13.4333992,14.5595989c-1.0625,0.9930992-2.6026001,1.2430992-3.9179993,0.6318016
		c-4.7901001-2.2131004-15.2196999-7.4459019-17.7269001-8.7068005c0.0298996-0.3148003,0.1329994-0.6200008,0.3197002-0.887001
		C23.2314072,22.1399899,23.6562061,21.8694897,24.1426067,21.7825909z M22.9783077,25.8466911
		c2.3491993,1.1784,6.6152,3.3106995,10.5124989,5.2185001L25.9680061,42.767292L22.9783077,25.8466911z M61.6641312,41.4534912
		c-0.2842255,0.4062004-0.7080002,0.6767006-1.1954269,0.7626991l-31.7245731,5.6063995
		c-0.4873238,0.0839996-0.9804249-0.0233994-1.385725-0.3075981c-0.4052753-0.2831993-0.6767998-0.7080002-0.7626991-1.1953011
		l-0.1152-0.6516991l8.8203011-13.7204018l0,0c1.6016998,0.7773018,3.0688972,1.4790993,4.214798,2.0088005
		c0.75,0.3466988,1.5469017,0.5156021,2.3349991,0.5156021c1.3789024,0,2.735302-0.5166016,3.7890015-1.5049019
		c1.0049019-0.9412003,2.2548981-2.2154999,3.5862999-3.6217003l12.5578003,9.6599007l0.1879997,1.0634003
		C62.0576057,40.5559921,61.9482079,41.0481911,61.6641312,41.4534912z"/>
	<path d="M19.0078068,29.8674908c-0.0956764-0.5438995-0.6161995-0.9111004-1.1581993-0.8105011L0.8262076,32.0647888
		c-0.544,0.0957031-0.9073,0.6143036-0.8106,1.1582031c0.085,0.4853973,0.5069,0.8261986,0.9834,0.8261986
		c0.0576,0,0.1162-0.0048981,0.1748-0.0155983l17.0235004-3.0079021
		C18.7412071,30.9299908,19.1045074,30.4114914,19.0078068,29.8674908z"/>
	<path d="M20.0293064,35.6516914c-0.0956993-0.5438995-0.6151752-0.9092026-1.1581764-0.8105011L8.6572075,36.6458893
		c-0.5439005,0.0957031-0.9071999,0.6142006-0.8105001,1.1582031c0.0848999,0.4852982,0.5067997,0.8260994,0.9834232,0.8260994
		c0.0575771,0,0.1161766-0.0048027,0.174777-0.0156021l10.2138004-1.8046989
		C19.7627068,36.7141914,20.1260071,36.1956902,20.0293064,35.6516914z"/>
	<path d="M19.8877068,40.5969925L13.0791311,41.80019c-0.5439234,0.0956993-0.9072237,0.6142006-0.810524,1.1581993
		c0.0848999,0.485302,0.5068007,0.8261032,0.9833002,0.8261032c0.0577002,0,0.1162996-0.0049019,0.1749001-0.0156021
		l6.8085003-1.2030983c0.5439987-0.0957031,0.907299-0.6142998,0.8106003-1.1582031
		C20.9512062,40.8635902,20.4287071,40.495491,19.8877068,40.5969925z"/>
</g>
</svg>